<svg width="88" height="88" viewBox="0 0 88 88" fill="none" xmlns="http://www.w3.org/2000/svg">
<circle cx="44" cy="44" r="44" fill="#CA87FF"/>
<path d="M63.9069 48.2305L69.4948 45.4479C69.7107 45.3402 69.9029 45.1904 70.0601 45.0073C70.2173 44.8242 70.3363 44.6115 70.4101 44.3817C70.4838 44.152 70.5109 43.9098 70.4897 43.6694C70.4685 43.429 70.3995 43.1953 70.2866 42.982L64.7213 32.3266C64.5041 31.9078 64.13 31.592 63.6808 31.4479C63.2316 31.3038 62.7436 31.3432 62.3233 31.5574L56.6676 34.3853M63.9069 48.2305L56.6676 34.3853M63.9069 48.2305L60.2872 52.4836M56.6676 34.3853H47.46C47.225 34.3844 46.9922 34.43 46.7748 34.5193C46.5574 34.6085 46.3597 34.7398 46.1931 34.9056L37.3249 43.7512C37.1439 43.9371 37.0043 44.1593 36.9156 44.4032C36.8269 44.647 36.7909 44.9069 36.8102 45.1657C36.8294 45.4245 36.9034 45.6763 37.0273 45.9043C37.1511 46.1324 37.322 46.3315 37.5285 46.4886L38.7502 47.4161C40.0048 48.3525 41.5283 48.8583 43.0938 48.8583C44.6593 48.8583 46.1828 48.3525 47.4374 47.4161L50.3331 45.2443L60.2872 52.4836M24.0905 48.0043L18.5026 45.199C18.2875 45.0936 18.0957 44.946 17.9388 44.7649C17.7818 44.5839 17.6629 44.3731 17.589 44.1452C17.5151 43.9173 17.4879 43.6768 17.5088 43.4381C17.5297 43.1994 17.5984 42.9674 17.7108 42.7558L23.2761 32.1004C23.4938 31.6819 23.8663 31.365 24.3142 31.2171C24.7621 31.0692 25.25 31.102 25.6741 31.3085L31.3299 34.1364L24.0905 48.0043ZM24.0905 48.0043L36.4653 57.6643C36.6583 57.8213 36.8816 57.9368 37.1213 58.0036L50.2427 61.284C50.5463 61.3496 50.8613 61.3406 51.1607 61.2579C51.4602 61.1751 51.7351 61.0211 51.962 60.8089L60.2872 52.4836M31.4656 34.1364L43.0712 30.743C43.4835 30.6247 43.9245 30.6568 44.3154 30.8335L52.143 34.3853" stroke="#722AAB" stroke-width="2.2" stroke-linecap="round" stroke-linejoin="round"/>
</svg>
