<svg width="159" height="32" viewBox="0 0 159 32" fill="none" xmlns="http://www.w3.org/2000/svg">
<path d="M78.4649 2.92705C78.7643 2.00574 80.0677 2.00574 80.3671 2.92705L82.685 10.0611C82.8189 10.4731 83.2029 10.7521 83.6361 10.7521H91.1373C92.106 10.7521 92.5088 11.9917 91.7251 12.5611L85.6565 16.9702C85.306 17.2248 85.1593 17.6762 85.2932 18.0882L87.6112 25.2222C87.9106 26.1435 86.8561 26.9097 86.0724 26.3403L80.0038 21.9312C79.6533 21.6765 79.1787 21.6765 78.8282 21.9312L72.7596 26.3403C71.9759 26.9097 70.9215 26.1435 71.2208 25.2222L73.5388 18.0882C73.6727 17.6762 73.526 17.2248 73.1755 16.9702L67.107 12.5611C66.3232 11.9917 66.726 10.7521 67.6947 10.7521H75.1959C75.6291 10.7521 76.0131 10.4731 76.147 10.0611L78.4649 2.92705Z" fill="#FFB545"/>
<path d="M46.5372 2.92705C46.8366 2.00574 48.14 2.00574 48.4393 2.92705L50.7573 10.0611C50.8912 10.4731 51.2751 10.7521 51.7084 10.7521H59.2095C60.1783 10.7521 60.581 11.9917 59.7973 12.5611L53.7287 16.9702C53.3783 17.2248 53.2316 17.6762 53.3655 18.0882L55.6835 25.2222C55.9828 26.1435 54.9283 26.9097 54.1446 26.3403L48.0761 21.9312C47.7256 21.6765 47.251 21.6765 46.9005 21.9312L40.8319 26.3403C40.0482 26.9097 38.9937 26.1435 39.2931 25.2222L41.6111 18.0882C41.7449 17.6762 41.5983 17.2248 41.2478 16.9702L35.1792 12.5611C34.3955 11.9917 34.7983 10.7521 35.767 10.7521H43.2682C43.7014 10.7521 44.0854 10.4731 44.2192 10.0611L46.5372 2.92705Z" fill="#FFB545"/>
<path d="M110.393 2.92705C110.692 2.00574 111.995 2.00574 112.295 2.92705L114.613 10.0611C114.747 10.4731 115.131 10.7521 115.564 10.7521H123.065C124.034 10.7521 124.437 11.9917 123.653 12.5611L117.584 16.9702C117.234 17.2248 117.087 17.6762 117.221 18.0882L119.539 25.2222C119.838 26.1435 118.784 26.9097 118 26.3403L111.932 21.9312C111.581 21.6765 111.106 21.6765 110.756 21.9312L104.687 26.3403C103.904 26.9097 102.849 26.1435 103.149 25.2222L105.467 18.0882C105.6 17.6762 105.454 17.2248 105.103 16.9702L99.0347 12.5611C98.251 11.9917 98.6537 10.7521 99.6225 10.7521H107.124C107.557 10.7521 107.941 10.4731 108.075 10.0611L110.393 2.92705Z" fill="#FFB545"/>
<path d="M14.6095 2.92705C14.9088 2.00574 16.2122 2.00574 16.5116 2.92705L18.8296 10.0611C18.9635 10.4731 19.3474 10.7521 19.7806 10.7521H27.2818C28.2505 10.7521 28.6533 11.9917 27.8696 12.5611L21.801 16.9702C21.4505 17.2248 21.3039 17.6762 21.4377 18.0882L23.7557 25.2222C24.0551 26.1435 23.0006 26.9097 22.2169 26.3403L16.1483 21.9312C15.7978 21.6765 15.3232 21.6765 14.9727 21.9312L8.90418 26.3403C8.12047 26.9097 7.06599 26.1435 7.36534 25.2222L9.68332 18.0882C9.8172 17.6762 9.67054 17.2248 9.32005 16.9702L3.25148 12.5611C2.46777 11.9917 2.87055 10.7521 3.83927 10.7521H11.3404C11.7737 10.7521 12.1576 10.4731 12.2915 10.0611L14.6095 2.92705Z" fill="#FFB545"/>
<path d="M142.32 2.92705C142.62 2.00574 143.923 2.00574 144.223 2.92705L146.541 10.0611C146.674 10.4731 147.058 10.7521 147.492 10.7521H154.993C155.961 10.7521 156.364 11.9917 155.581 12.5611L149.512 16.9702C149.161 17.2248 149.015 17.6762 149.149 18.0882L151.467 25.2222C151.766 26.1435 150.712 26.9097 149.928 26.3403L143.859 21.9312C143.509 21.6765 143.034 21.6765 142.684 21.9312L136.615 26.3403C135.831 26.9097 134.777 26.1435 135.076 25.2222L137.394 18.0882C137.528 17.6762 137.381 17.2248 137.031 16.9702L130.962 12.5611C130.179 11.9917 130.581 10.7521 131.55 10.7521H139.051C139.485 10.7521 139.869 10.4731 140.002 10.0611L142.32 2.92705Z" fill="#FFB545"/>
</svg>
